# xmcd CD database file
#
# Track frame offsets:
#	150
#	14199
#	28726
#	49696
#	64145
#	79545
#	100499
#	116091
#	134156
#	153708
#	170575
#	185252
#
# Disc length: 2687 seconds
#
# Revision: 4
# Processed by: cddbd v1.5.2PL0 Copyright (c) Steve Scherf et al.
# Submitted via: CDex 1.70beta2
#
DISCID=ad0a7d0c
DTITLE=Touch and Go - I Find You Very Attractive
DYEAR=1999
DGENRE=Jazz
TTITLE0=Straight To ... Number One
TTITLE1=Big Beat
TTITLE2=Ecoutez, Repetez
TTITLE3=Would You ...
TTITLE4=So Hot
TTITLE5=Mein Freund Harvey (Sugar Daddy)
TTITLE6=Tango In Harlem
TTITLE7=Are You Talking About Me
TTITLE8=Life's A Beach
TTITLE9=Thanks For Coming
TTITLE10=Would You ... (Trailermen Go To Rio Edit)
TTITLE11=Straight To ... Number One (Dreamcatcher's Mix)
EXTD=YEAR: 1999
EXTT0=
EXTT1=
EXTT2=
EXTT3=
EXTT4=
EXTT5=
EXTT6=
EXTT7=
EXTT8=
EXTT9=
EXTT10=
EXTT11=
PLAYORDER=
